<mxfile host="" modified="2020-07-04T11:13:02.173Z" agent="5.0 (Macintosh; Intel Mac OS X 10_15_5) AppleWebKit/537.36 (KHTML, like Gecko) Code/1.46.1 Chrome/78.0.3904.130 Electron/7.3.1 Safari/537.36" etag="U2BkipcrNc5ERks6Xt6N" version="13.1.3">
    <diagram id="G6u2pa_VjVDDQZ0H6Lm_" name="Page-1">
        <mxGraphModel dx="1242" dy="448" grid="1" gridSize="10" guides="1" tooltips="1" connect="1" arrows="1" fold="1" page="1" pageScale="1" pageWidth="1100" pageHeight="850" math="0" shadow="0">
            <root>
                <mxCell id="0"/>
                <mxCell id="1" parent="0"/>
                <mxCell id="fZP8IcHrs8CvVbbr-H_v-1" value="" style="whiteSpace=wrap;html=1;aspect=fixed;align=left;" parent="1" vertex="1">
                    <mxGeometry x="20" y="40" width="420" height="420" as="geometry"/>
                </mxCell>
                <mxCell id="fZP8IcHrs8CvVbbr-H_v-132" value="" style="rounded=0;whiteSpace=wrap;html=1;" parent="1" vertex="1">
                    <mxGeometry x="30" y="60" width="400" height="390" as="geometry"/>
                </mxCell>
                <mxCell id="fZP8IcHrs8CvVbbr-H_v-97" value="" style="whiteSpace=wrap;html=1;aspect=fixed;align=left;" parent="1" vertex="1">
                    <mxGeometry x="470" y="480" width="420" height="420" as="geometry"/>
                </mxCell>
                <mxCell id="fZP8IcHrs8CvVbbr-H_v-130" value="" style="rounded=0;whiteSpace=wrap;html=1;" parent="1" vertex="1">
                    <mxGeometry x="475" y="510" width="405" height="380" as="geometry"/>
                </mxCell>
                <mxCell id="fZP8IcHrs8CvVbbr-H_v-47" value="" style="whiteSpace=wrap;html=1;aspect=fixed;align=left;" parent="1" vertex="1">
                    <mxGeometry x="470" y="40" width="420" height="420" as="geometry"/>
                </mxCell>
                <mxCell id="fZP8IcHrs8CvVbbr-H_v-74" value="" style="rounded=0;whiteSpace=wrap;html=1;" parent="1" vertex="1">
                    <mxGeometry x="480" y="260" width="390" height="160" as="geometry"/>
                </mxCell>
                <mxCell id="fZP8IcHrs8CvVbbr-H_v-3" value="" style="rounded=0;whiteSpace=wrap;html=1;" parent="1" vertex="1">
                    <mxGeometry x="40" y="92.5" width="380" height="90" as="geometry"/>
                </mxCell>
                <mxCell id="fZP8IcHrs8CvVbbr-H_v-2" value="APP" style="text;html=1;strokeColor=none;fillColor=none;align=center;verticalAlign=middle;whiteSpace=wrap;rounded=0;" parent="1" vertex="1">
                    <mxGeometry x="20" y="40" width="40" height="20" as="geometry"/>
                </mxCell>
                <mxCell id="fZP8IcHrs8CvVbbr-H_v-4" value="Phenomenon Search: Link to search page&amp;nbsp;" style="text;html=1;strokeColor=none;fillColor=none;align=center;verticalAlign=middle;whiteSpace=wrap;rounded=0;" parent="1" vertex="1">
                    <mxGeometry x="90" y="127.5" width="190" height="20" as="geometry"/>
                </mxCell>
                <mxCell id="fZP8IcHrs8CvVbbr-H_v-48" value="APP" style="text;html=1;strokeColor=none;fillColor=none;align=center;verticalAlign=middle;whiteSpace=wrap;rounded=0;" parent="1" vertex="1">
                    <mxGeometry x="480" y="50" width="40" height="20" as="geometry"/>
                </mxCell>
                <mxCell id="fZP8IcHrs8CvVbbr-H_v-49" value="" style="rounded=0;whiteSpace=wrap;html=1;" parent="1" vertex="1">
                    <mxGeometry x="40" y="212.5" width="380" height="90" as="geometry"/>
                </mxCell>
                <mxCell id="fZP8IcHrs8CvVbbr-H_v-50" value="" style="rounded=0;whiteSpace=wrap;html=1;" parent="1" vertex="1">
                    <mxGeometry x="40" y="342.5" width="380" height="90" as="geometry"/>
                </mxCell>
                <mxCell id="fZP8IcHrs8CvVbbr-H_v-55" value="City : Link to show page" style="ellipse;whiteSpace=wrap;html=1;aspect=fixed;" parent="1" vertex="1">
                    <mxGeometry x="45" y="232.5" width="50" height="50" as="geometry"/>
                </mxCell>
                <mxCell id="fZP8IcHrs8CvVbbr-H_v-56" value="" style="ellipse;whiteSpace=wrap;html=1;aspect=fixed;" parent="1" vertex="1">
                    <mxGeometry x="110" y="232.5" width="50" height="50" as="geometry"/>
                </mxCell>
                <mxCell id="fZP8IcHrs8CvVbbr-H_v-57" value="" style="ellipse;whiteSpace=wrap;html=1;aspect=fixed;" parent="1" vertex="1">
                    <mxGeometry x="260" y="232.5" width="50" height="50" as="geometry"/>
                </mxCell>
                <mxCell id="fZP8IcHrs8CvVbbr-H_v-58" value="" style="ellipse;whiteSpace=wrap;html=1;aspect=fixed;" parent="1" vertex="1">
                    <mxGeometry x="330" y="232.5" width="50" height="50" as="geometry"/>
                </mxCell>
                <mxCell id="fZP8IcHrs8CvVbbr-H_v-59" value="" style="ellipse;whiteSpace=wrap;html=1;aspect=fixed;" parent="1" vertex="1">
                    <mxGeometry x="185" y="232.5" width="50" height="50" as="geometry"/>
                </mxCell>
                <mxCell id="fZP8IcHrs8CvVbbr-H_v-60" value="Avi: Link to Streamer Show page" style="ellipse;whiteSpace=wrap;html=1;aspect=fixed;" parent="1" vertex="1">
                    <mxGeometry x="47.5" y="372.5" width="50" height="50" as="geometry"/>
                </mxCell>
                <mxCell id="fZP8IcHrs8CvVbbr-H_v-61" value="" style="ellipse;whiteSpace=wrap;html=1;aspect=fixed;" parent="1" vertex="1">
                    <mxGeometry x="112.5" y="372.5" width="50" height="50" as="geometry"/>
                </mxCell>
                <mxCell id="fZP8IcHrs8CvVbbr-H_v-62" value="" style="ellipse;whiteSpace=wrap;html=1;aspect=fixed;" parent="1" vertex="1">
                    <mxGeometry x="262.5" y="372.5" width="50" height="50" as="geometry"/>
                </mxCell>
                <mxCell id="fZP8IcHrs8CvVbbr-H_v-63" value="" style="ellipse;whiteSpace=wrap;html=1;aspect=fixed;" parent="1" vertex="1">
                    <mxGeometry x="332.5" y="372.5" width="50" height="50" as="geometry"/>
                </mxCell>
                <mxCell id="fZP8IcHrs8CvVbbr-H_v-64" value="" style="ellipse;whiteSpace=wrap;html=1;aspect=fixed;" parent="1" vertex="1">
                    <mxGeometry x="187.5" y="372.5" width="50" height="50" as="geometry"/>
                </mxCell>
                <mxCell id="fZP8IcHrs8CvVbbr-H_v-6" value="Stories Container: Location : UK" style="text;html=1;strokeColor=none;fillColor=none;align=center;verticalAlign=middle;whiteSpace=wrap;rounded=0;" parent="1" vertex="1">
                    <mxGeometry x="47.5" y="212.5" width="212.5" height="20" as="geometry"/>
                </mxCell>
                <mxCell id="fZP8IcHrs8CvVbbr-H_v-8" value="Stories Container : Streamers" style="text;html=1;strokeColor=none;fillColor=none;align=center;verticalAlign=middle;whiteSpace=wrap;rounded=0;" parent="1" vertex="1">
                    <mxGeometry x="40" y="342.5" width="180" height="20" as="geometry"/>
                </mxCell>
                <mxCell id="fZP8IcHrs8CvVbbr-H_v-66" value="" style="rounded=0;whiteSpace=wrap;html=1;" parent="1" vertex="1">
                    <mxGeometry x="480" y="85" width="390" height="355" as="geometry"/>
                </mxCell>
                <mxCell id="fZP8IcHrs8CvVbbr-H_v-67" value="Avi" style="ellipse;whiteSpace=wrap;html=1;aspect=fixed;" parent="1" vertex="1">
                    <mxGeometry x="500" y="110" width="50" height="50" as="geometry"/>
                </mxCell>
                <mxCell id="fZP8IcHrs8CvVbbr-H_v-68" value="Username" style="rounded=0;whiteSpace=wrap;html=1;" parent="1" vertex="1">
                    <mxGeometry x="590" y="105" width="200" height="50" as="geometry"/>
                </mxCell>
                <mxCell id="fZP8IcHrs8CvVbbr-H_v-69" value="Details" style="rounded=0;whiteSpace=wrap;html=1;" parent="1" vertex="1">
                    <mxGeometry x="500" y="170" width="340" height="50" as="geometry"/>
                </mxCell>
                <mxCell id="fZP8IcHrs8CvVbbr-H_v-70" value="Current Stream" style="rounded=0;whiteSpace=wrap;html=1;" parent="1" vertex="1">
                    <mxGeometry x="490" y="290" width="120" height="60" as="geometry"/>
                </mxCell>
                <mxCell id="fZP8IcHrs8CvVbbr-H_v-71" value="Most popular" style="rounded=0;whiteSpace=wrap;html=1;" parent="1" vertex="1">
                    <mxGeometry x="615" y="290" width="120" height="60" as="geometry"/>
                </mxCell>
                <mxCell id="fZP8IcHrs8CvVbbr-H_v-72" value="Most recent" style="rounded=0;whiteSpace=wrap;html=1;" parent="1" vertex="1">
                    <mxGeometry x="740" y="290" width="120" height="60" as="geometry"/>
                </mxCell>
                <mxCell id="fZP8IcHrs8CvVbbr-H_v-76" value="Video Container" style="text;html=1;strokeColor=none;fillColor=none;align=center;verticalAlign=middle;whiteSpace=wrap;rounded=0;" parent="1" vertex="1">
                    <mxGeometry x="480" y="260" width="110" height="20" as="geometry"/>
                </mxCell>
                <mxCell id="fZP8IcHrs8CvVbbr-H_v-77" value="Streamer Container" style="text;html=1;strokeColor=none;fillColor=none;align=center;verticalAlign=middle;whiteSpace=wrap;rounded=0;" parent="1" vertex="1">
                    <mxGeometry x="480" y="85" width="130" height="20" as="geometry"/>
                </mxCell>
                <mxCell id="fZP8IcHrs8CvVbbr-H_v-78" value="" style="whiteSpace=wrap;html=1;aspect=fixed;align=left;" parent="1" vertex="1">
                    <mxGeometry x="20" y="470" width="420" height="420" as="geometry"/>
                </mxCell>
                <mxCell id="fZP8IcHrs8CvVbbr-H_v-80" value="APP" style="text;html=1;strokeColor=none;fillColor=none;align=center;verticalAlign=middle;whiteSpace=wrap;rounded=0;" parent="1" vertex="1">
                    <mxGeometry x="30" y="480" width="40" height="20" as="geometry"/>
                </mxCell>
                <mxCell id="fZP8IcHrs8CvVbbr-H_v-81" value="" style="rounded=0;whiteSpace=wrap;html=1;" parent="1" vertex="1">
                    <mxGeometry x="30" y="515" width="390" height="315" as="geometry"/>
                </mxCell>
                <mxCell id="fZP8IcHrs8CvVbbr-H_v-82" value="Avi" style="ellipse;whiteSpace=wrap;html=1;aspect=fixed;" parent="1" vertex="1">
                    <mxGeometry x="50" y="540" width="50" height="50" as="geometry"/>
                </mxCell>
                <mxCell id="fZP8IcHrs8CvVbbr-H_v-83" value="City Name" style="rounded=0;whiteSpace=wrap;html=1;" parent="1" vertex="1">
                    <mxGeometry x="140" y="535" width="200" height="50" as="geometry"/>
                </mxCell>
                <mxCell id="fZP8IcHrs8CvVbbr-H_v-84" value="Bio" style="rounded=0;whiteSpace=wrap;html=1;" parent="1" vertex="1">
                    <mxGeometry x="50" y="600" width="340" height="50" as="geometry"/>
                </mxCell>
                <mxCell id="fZP8IcHrs8CvVbbr-H_v-89" value="City Container" style="text;html=1;strokeColor=none;fillColor=none;align=center;verticalAlign=middle;whiteSpace=wrap;rounded=0;" parent="1" vertex="1">
                    <mxGeometry x="30" y="515" width="130" height="20" as="geometry"/>
                </mxCell>
                <mxCell id="fZP8IcHrs8CvVbbr-H_v-90" value="" style="rounded=0;whiteSpace=wrap;html=1;" parent="1" vertex="1">
                    <mxGeometry x="40" y="670" width="380" height="90" as="geometry"/>
                </mxCell>
                <mxCell id="fZP8IcHrs8CvVbbr-H_v-91" value="Links to open stream" style="ellipse;whiteSpace=wrap;html=1;aspect=fixed;" parent="1" vertex="1">
                    <mxGeometry x="45" y="690" width="50" height="50" as="geometry"/>
                </mxCell>
                <mxCell id="fZP8IcHrs8CvVbbr-H_v-92" value="" style="ellipse;whiteSpace=wrap;html=1;aspect=fixed;" parent="1" vertex="1">
                    <mxGeometry x="110" y="690" width="50" height="50" as="geometry"/>
                </mxCell>
                <mxCell id="fZP8IcHrs8CvVbbr-H_v-93" value="" style="ellipse;whiteSpace=wrap;html=1;aspect=fixed;" parent="1" vertex="1">
                    <mxGeometry x="260" y="690" width="50" height="50" as="geometry"/>
                </mxCell>
                <mxCell id="fZP8IcHrs8CvVbbr-H_v-94" value="" style="ellipse;whiteSpace=wrap;html=1;aspect=fixed;" parent="1" vertex="1">
                    <mxGeometry x="330" y="690" width="50" height="50" as="geometry"/>
                </mxCell>
                <mxCell id="fZP8IcHrs8CvVbbr-H_v-95" value="" style="ellipse;whiteSpace=wrap;html=1;aspect=fixed;" parent="1" vertex="1">
                    <mxGeometry x="185" y="690" width="50" height="50" as="geometry"/>
                </mxCell>
                <mxCell id="fZP8IcHrs8CvVbbr-H_v-96" value="Explore Container" style="text;html=1;strokeColor=none;fillColor=none;align=center;verticalAlign=middle;whiteSpace=wrap;rounded=0;" parent="1" vertex="1">
                    <mxGeometry x="47.5" y="670" width="169" height="20" as="geometry"/>
                </mxCell>
                <mxCell id="fZP8IcHrs8CvVbbr-H_v-98" value="" style="rounded=0;whiteSpace=wrap;html=1;" parent="1" vertex="1">
                    <mxGeometry x="480" y="610" width="390" height="250" as="geometry"/>
                </mxCell>
                <mxCell id="fZP8IcHrs8CvVbbr-H_v-99" value="APP" style="text;html=1;strokeColor=none;fillColor=none;align=center;verticalAlign=middle;whiteSpace=wrap;rounded=0;" parent="1" vertex="1">
                    <mxGeometry x="480" y="490" width="40" height="20" as="geometry"/>
                </mxCell>
                <mxCell id="fZP8IcHrs8CvVbbr-H_v-100" value="" style="rounded=0;whiteSpace=wrap;html=1;" parent="1" vertex="1">
                    <mxGeometry x="480" y="545" width="390" height="55" as="geometry"/>
                </mxCell>
                <mxCell id="fZP8IcHrs8CvVbbr-H_v-107" value="Results" style="text;html=1;strokeColor=none;fillColor=none;align=center;verticalAlign=middle;whiteSpace=wrap;rounded=0;" parent="1" vertex="1">
                    <mxGeometry x="463.75" y="620" width="110" height="20" as="geometry"/>
                </mxCell>
                <mxCell id="fZP8IcHrs8CvVbbr-H_v-108" value="Search Bar" style="text;html=1;strokeColor=none;fillColor=none;align=center;verticalAlign=middle;whiteSpace=wrap;rounded=0;" parent="1" vertex="1">
                    <mxGeometry x="470" y="550" width="130" height="20" as="geometry"/>
                </mxCell>
                <mxCell id="fZP8IcHrs8CvVbbr-H_v-109" value="" style="ellipse;whiteSpace=wrap;html=1;aspect=fixed;" parent="1" vertex="1">
                    <mxGeometry x="486.25" y="650" width="50" height="50" as="geometry"/>
                </mxCell>
                <mxCell id="fZP8IcHrs8CvVbbr-H_v-111" value="" style="ellipse;whiteSpace=wrap;html=1;aspect=fixed;" parent="1" vertex="1">
                    <mxGeometry x="541.25" y="650" width="50" height="50" as="geometry"/>
                </mxCell>
                <mxCell id="fZP8IcHrs8CvVbbr-H_v-112" value="" style="ellipse;whiteSpace=wrap;html=1;aspect=fixed;" parent="1" vertex="1">
                    <mxGeometry x="601.25" y="650" width="50" height="50" as="geometry"/>
                </mxCell>
                <mxCell id="fZP8IcHrs8CvVbbr-H_v-113" value="" style="ellipse;whiteSpace=wrap;html=1;aspect=fixed;" parent="1" vertex="1">
                    <mxGeometry x="656.25" y="650" width="50" height="50" as="geometry"/>
                </mxCell>
                <mxCell id="fZP8IcHrs8CvVbbr-H_v-114" value="" style="ellipse;whiteSpace=wrap;html=1;aspect=fixed;" parent="1" vertex="1">
                    <mxGeometry x="721.25" y="650" width="50" height="50" as="geometry"/>
                </mxCell>
                <mxCell id="fZP8IcHrs8CvVbbr-H_v-115" value="" style="ellipse;whiteSpace=wrap;html=1;aspect=fixed;" parent="1" vertex="1">
                    <mxGeometry x="791.25" y="650" width="50" height="50" as="geometry"/>
                </mxCell>
                <mxCell id="fZP8IcHrs8CvVbbr-H_v-116" value="" style="ellipse;whiteSpace=wrap;html=1;aspect=fixed;" parent="1" vertex="1">
                    <mxGeometry x="493.75" y="720" width="50" height="50" as="geometry"/>
                </mxCell>
                <mxCell id="fZP8IcHrs8CvVbbr-H_v-117" value="" style="ellipse;whiteSpace=wrap;html=1;aspect=fixed;" parent="1" vertex="1">
                    <mxGeometry x="548.75" y="720" width="50" height="50" as="geometry"/>
                </mxCell>
                <mxCell id="fZP8IcHrs8CvVbbr-H_v-118" value="" style="ellipse;whiteSpace=wrap;html=1;aspect=fixed;" parent="1" vertex="1">
                    <mxGeometry x="608.75" y="720" width="50" height="50" as="geometry"/>
                </mxCell>
                <mxCell id="fZP8IcHrs8CvVbbr-H_v-119" value="" style="ellipse;whiteSpace=wrap;html=1;aspect=fixed;" parent="1" vertex="1">
                    <mxGeometry x="663.75" y="720" width="50" height="50" as="geometry"/>
                </mxCell>
                <mxCell id="fZP8IcHrs8CvVbbr-H_v-120" value="" style="ellipse;whiteSpace=wrap;html=1;aspect=fixed;" parent="1" vertex="1">
                    <mxGeometry x="728.75" y="720" width="50" height="50" as="geometry"/>
                </mxCell>
                <mxCell id="fZP8IcHrs8CvVbbr-H_v-121" value="" style="ellipse;whiteSpace=wrap;html=1;aspect=fixed;" parent="1" vertex="1">
                    <mxGeometry x="798.75" y="720" width="50" height="50" as="geometry"/>
                </mxCell>
                <mxCell id="fZP8IcHrs8CvVbbr-H_v-122" value="" style="ellipse;whiteSpace=wrap;html=1;aspect=fixed;" parent="1" vertex="1">
                    <mxGeometry x="498.75" y="790" width="50" height="50" as="geometry"/>
                </mxCell>
                <mxCell id="fZP8IcHrs8CvVbbr-H_v-123" value="" style="ellipse;whiteSpace=wrap;html=1;aspect=fixed;" parent="1" vertex="1">
                    <mxGeometry x="553.75" y="790" width="50" height="50" as="geometry"/>
                </mxCell>
                <mxCell id="fZP8IcHrs8CvVbbr-H_v-124" value="" style="ellipse;whiteSpace=wrap;html=1;aspect=fixed;" parent="1" vertex="1">
                    <mxGeometry x="613.75" y="790" width="50" height="50" as="geometry"/>
                </mxCell>
                <mxCell id="fZP8IcHrs8CvVbbr-H_v-125" value="" style="ellipse;whiteSpace=wrap;html=1;aspect=fixed;" parent="1" vertex="1">
                    <mxGeometry x="668.75" y="790" width="50" height="50" as="geometry"/>
                </mxCell>
                <mxCell id="fZP8IcHrs8CvVbbr-H_v-126" value="" style="ellipse;whiteSpace=wrap;html=1;aspect=fixed;" parent="1" vertex="1">
                    <mxGeometry x="733.75" y="790" width="50" height="50" as="geometry"/>
                </mxCell>
                <mxCell id="fZP8IcHrs8CvVbbr-H_v-127" value="" style="ellipse;whiteSpace=wrap;html=1;aspect=fixed;" parent="1" vertex="1">
                    <mxGeometry x="803.75" y="790" width="50" height="50" as="geometry"/>
                </mxCell>
                <mxCell id="fZP8IcHrs8CvVbbr-H_v-129" value="Follow" style="rounded=0;whiteSpace=wrap;html=1;" parent="1" vertex="1">
                    <mxGeometry x="800" y="120" width="60" height="20" as="geometry"/>
                </mxCell>
                <mxCell id="fZP8IcHrs8CvVbbr-H_v-131" value="Search Page Container" style="text;html=1;strokeColor=none;fillColor=none;align=center;verticalAlign=middle;whiteSpace=wrap;rounded=0;" parent="1" vertex="1">
                    <mxGeometry x="486.25" y="515" width="173.75" height="20" as="geometry"/>
                </mxCell>
                <mxCell id="fZP8IcHrs8CvVbbr-H_v-133" value="Index Container" style="text;html=1;strokeColor=none;fillColor=none;align=center;verticalAlign=middle;whiteSpace=wrap;rounded=0;" parent="1" vertex="1">
                    <mxGeometry x="40" y="65" width="110" height="20" as="geometry"/>
                </mxCell>
            </root>
        </mxGraphModel>
    </diagram>
</mxfile>